<?xml version="1.0" standalone="no"?>
<!DOCTYPE svg PUBLIC "-//W3C//DTD SVG 1.0//EN" "http://www.w3.org/TR/2001/REC-SVG-20010904/DTD/svg10.dtd">
<svg xmlns="http://www.w3.org/2000/svg" xmlns:xlink="http://www.w3.org/1999/xlink" id="body_1" width="1767" height="622">

<g transform="matrix(0.0035753916 0 0 0.0035753916 622.49646 -0)">
	<g>
        <path d="M62939 115673L33068 115673L33068 124537L54254 124537C 53207 136967 42865 142268 33104 142268C 20615 142268 9717 132442 9717 118669C 9717 105252 20106 94920 33131 94920C 43181 94920 49103 101326 49103 101326L49103 101326L55308 94899C 55308 94899 47343 86031 32814 86031C 14314 86030 0 101645 0 118511C 0 135037 13463 151153 33286 151153C 50719 151152 63480 139210 63480 121550C 63480 117824 62939 115671 62939 115671L62939 115671L62939 115673z" stroke="none" fill="#176BEF" fill-rule="nonzero" />
        <path d="M87531 117475C 93559 117475 99271 122348 99271 130200C 99271 137887 93583 142898 87504 142898C 80824 142898 75553 137549 75553 130140C 75553 122889 80757 117475 87531 117475zM87409 109254C 75152 109254 66368 118836 66368 130013C 66368 141353 74889 151114 87553 151114C 99018 151114 108412 142351 108412 130256C 108412 116393 97485 109254 87409 109254z" stroke="none" fill="#FF3E30" fill-rule="nonzero" />
        <path d="M133292 117475C 139321 117475 145033 122348 145033 130200C 145033 137887 139344 142898 133265 142898C 126586 142898 121316 137549 121316 130140C 121316 122889 126520 117475 133292 117475zM133171 109254C 120915 109254 112130 118836 112130 130013C 112130 141353 120650 151114 133315 151114C 144780 151114 154173 142351 154173 130256C 154173 116393 143247 109254 133171 109254z" stroke="none" fill="#F7B529" fill-rule="nonzero" />
        <path d="M178871 117481C 184387 117481 190051 122190 190051 130233C 190051 138409 184398 142915 178749 142915C 172752 142915 167171 138045 167171 130311C 167171 122275 172967 117481 178871 117481zM178056 109276C 166806 109276 157962 119130 157962 130190C 157962 142787 168215 151142 177862 151142C 183828 151142 187000 148774 189343 146057L189343 146057L189343 150183C 189343 157405 184957 161730 178339 161730C 171946 161729 168740 156976 167626 154278L167626 154278L159581 157641C 162435 163674 168180 169967 178406 169967C 189592 169967 198117 162921 198117 148145L198117 148145L198117 110534L189343 110534L189343 114080C 186645 111172 182954 109276 178056 109276C 178056 109276 178056 109276 178056 109276z" stroke="none" fill="#176BEF" fill-rule="nonzero" />
        <path d="M237502 117276C 241326 117276 244078 119308 245247 121746L245247 121746L226505 129580C 225697 123515 231443 117276 237502 117276zM237136 109225C 226523 109225 217613 117669 217613 130128C 217613 143312 227545 151131 238155 151131C 247011 151131 252446 146286 255691 141945L255691 141945L248454 137131C 246577 140045 243438 142892 238200 142892C 232317 142892 229611 139670 227934 136550L227934 136550L256000 124904L254543 121491C 251831 114808 245506 109226 237137 109226L237137 109226L237136 109225z" stroke="none" fill="#FF3E30" fill-rule="nonzero" />
        <path d="M204233 149888L213452 149888L213452 88195L204233 88195L204233 149888" stroke="none" fill="#179C52" fill-rule="nonzero" />
	</g>
    <path d="M2 0L256000 0L256000 255998L2 255998z" stroke="none" fill="none" />
</g>
</svg>